# xmcd
#
# Track frame offsets:
# 150
# 16493
# 32684
# 49973
# 66046
# 85078
# 102409
# 118500
# 134504
# 150274
# 169623
# 183200
#
# Disc length: 2709 seconds
#
#
# Revision: 0
# Processed by: cddbd v1.5.1PL2 Copyright (c) Steve Scherf et al.
# Submitted via: FreeRIP 2.945 
#
DISCID=920a930c
DTITLE=Garotaço - eu quero e festa
DYEAR=2004
DGENRE=gauchesca
TTITLE0=eu quero e festa
TTITLE1=minha morena
TTITLE2=nos baile do garotaco
TTITLE3=o doutor e a empregada
TTITLE4=a meu lado e seu lugar
TTITLE5=som do bom
TTITLE6=cravando espora
TTITLE7=criado campo a fora
TTITLE8=nosso embalo
TTITLE9=um grande amor
TTITLE10=requebra guria
TTITLE11=labios de mel
EXTD=
EXTT0=
EXTT1=
EXTT2=
EXTT3=
EXTT4=
EXTT5=
EXTT6=
EXTT7=
EXTT8=
EXTT9=
EXTT10=
EXTT11=
PLAYORDER=
